<svg xmlns="http://www.w3.org/2000/svg" width="114" height="114" viewBox="0 0 114 114" fill="none">
<g clip-path="url(#clip0_22_96)">
<path d="M40.8552 82.9317C40.7894 82.9264 40.7253 82.9251 40.6595 82.9198V78.8413H41.0982C43.396 78.8413 45.2586 77.3902 45.2586 75.6C45.2586 73.8098 43.396 72.3587 41.0982 72.3587H35.6167C35.9677 72.1076 36.3186 71.8566 36.6661 71.6081C42.76 67.2496 48.3629 62.3758 53.5339 57.3522C61.109 49.943 68.0751 42.2196 74.1656 34.0139C64.6891 42.865 55.307 51.8015 45.046 60.1151C39.7687 64.3908 34.3143 68.564 28.4533 72.3587H16.7649C14.4671 72.3587 12.6045 73.8098 12.6045 75.6C12.6045 77.3902 14.4671 78.8413 16.7649 78.8413H17.2036V82.9198C17.1378 82.9251 17.0737 82.9264 17.0079 82.9317C10.1245 83.6441 1.2435 89.3341 0.244726 94.7954C-0.347451 98.9449 0.135063 103.094 1.69227 107.244C2.70454 109.769 6.62201 112.316 9.83765 112.77C22.5669 114.41 35.2979 114.41 48.0271 112.77C51.2411 112.316 55.1603 109.768 56.1725 107.244C57.7297 103.094 58.2122 98.9449 57.6201 94.7954C56.6196 89.3327 47.7386 83.6441 40.8552 82.9317ZM14.6004 88.9713C14.0824 90.3435 12.4459 91.3372 11.3797 92.4413C10.4703 93.3811 9.79041 94.4431 9.30958 95.5577C8.55882 97.2993 8.2332 99.1158 8.1421 100.947C8.13029 101.189 8.27876 104.143 8.17922 104.167L7.08428 104.425C7.08428 104.425 6.28459 103.344 5.70422 101.571C4.82018 98.8752 4.70545 95.4368 6.3487 92.8842C7.37953 91.282 8.54363 89.823 10.332 88.6322C11.2126 88.0446 15.3005 87.118 14.6004 88.9713Z" fill="#00D1CD"/>
<path d="M113.349 1.58384C113.6 1.00551 113.813 0.478439 114 0C97.0293 2.95344 80.3657 7.82196 67.3159 16.2748C64.5186 24.1415 67.326 28.8404 67.326 28.8404C67.326 28.8404 61.826 27.2829 58.5344 23.0518C56.3479 25.0747 54.3285 27.2474 52.5098 29.5923C46.9575 40.0259 50.7855 46.4507 50.7855 46.4507C50.7855 46.4507 47.58 45.5437 44.5449 43.2409C39.6894 52.6139 35.335 60.4884 32.0856 66.1994C39.7771 60.9156 47.4619 55.6357 54.2812 49.6157C61.4919 43.4486 68.6335 37.2052 75.4629 30.7818C76.7266 29.612 77.7996 28.5749 78.7359 27.7455C80.5766 26.071 81.6614 25.1246 81.6614 25.1246C81.6614 25.1246 80.9933 26.2721 79.7583 28.2595C75.6215 34.9142 70.8639 41.2614 65.7502 47.4851C59.265 55.378 51.7371 62.97 43.3369 69.8022C42.4832 70.4962 43.477 71.6069 44.6073 71.2191C52.8286 68.3958 60.8154 64.8811 68.0953 60.7933C66.3812 60.6396 64.684 60.3464 63.0255 59.9061C62.4418 59.7063 61.9407 59.5355 61.5358 59.3777C60.7243 59.0781 60.2823 58.894 60.2823 58.894C60.2823 58.894 60.7918 58.8954 61.6843 58.898C65.9409 58.9098 70.1435 58.3039 74.1116 57.1788C78.4238 54.4028 82.3936 51.4112 85.9197 48.2383C82.5134 48.3079 79.1476 47.8216 76.0349 46.7398C75.6873 46.6189 75.829 46.2154 76.2086 46.2233C79.6858 46.2916 83.1545 45.8631 86.468 45.0561C87.7839 44.7354 89.0712 44.349 90.3315 43.9178C93.7546 40.2402 96.5687 36.3561 98.6017 32.3025C100.694 28.132 102.6 24.3478 104.316 20.9514C100.52 21.5534 96.6497 21.514 92.8689 20.8831C92.8689 20.8831 93.5218 20.6649 94.664 20.2837C104.846 16.8847 109.971 9.34534 113.349 1.58384Z" fill="#00D1CD"/>
</g>
<defs>
<clipPath id="clip0_22_96">
<rect width="114" height="114" fill="white"/>
</clipPath>
</defs>
</svg>