<svg xml:space="preserve" viewBox="358 356 216 212" version="1.1" xmlns:xlink="http://www.w3.org/1999/xlink" xmlns="http://www.w3.org/2000/svg" style="max-height: 500px" width="216" height="212">
<desc>Created with Fabric.js 3.5.0</desc>
<defs>
</defs>
<rect fill="rgba(255,255,255,0)" height="100%" width="100%" y="0" x="0"/>
<g id="237886" transform="matrix(1 0 0 1 854.6525 459.5098)">
<g style="">
		<g id="icon-0" transform="matrix(2.0133 0 0 2.0133 -407.5799 26.048)">
<path stroke-linecap="round" d="M 44.161 69.595 c -0.039 -0.004 -0.077 -0.005 -0.116 -0.009 v -3.103 h 0.26 c 1.362 0 2.466 -1.104 2.466 -2.466 c 0 -1.362 -1.104 -2.466 -2.466 -2.466 h -3.249 c 0.208 -0.191 0.416 -0.382 0.622 -0.571 c 3.612 -3.316 6.933 -7.024 9.998 -10.846 c 4.49 -5.637 8.619 -11.513 12.229 -17.756 c -5.617 6.734 -11.178 13.533 -17.26 19.858 c -3.128 3.253 -6.361 6.428 -9.835 9.315 h -6.928 c -1.362 0 -2.466 1.104 -2.466 2.466 c 0 1.362 1.104 2.466 2.466 2.466 h 0.26 v 3.103 c -0.039 0.004 -0.077 0.005 -0.116 0.009 c -4.08 0.542 -9.344 4.871 -9.936 9.026 c -0.351 3.157 -0.065 6.314 0.858 9.471 c 0.6 1.921 2.922 3.859 4.828 4.204 c 7.545 1.248 15.091 1.248 22.636 0 c 1.905 -0.345 4.228 -2.284 4.828 -4.204 c 0.923 -3.157 1.209 -6.314 0.858 -9.471 C 53.505 74.465 48.241 70.137 44.161 69.595 z M 28.599 74.19 c -0.307 1.044 -1.277 1.8 -1.909 2.64 c -0.539 0.715 -0.942 1.523 -1.227 2.371 c -0.445 1.325 -0.638 2.707 -0.692 4.1 c -0.007 0.184 0.081 2.432 0.022 2.45 l -0.649 0.196 c 0 0 -0.474 -0.822 -0.818 -2.171 c -0.524 -2.051 -0.592 -4.667 0.382 -6.609 c 0.611 -1.219 1.301 -2.329 2.361 -3.235 C 26.591 73.485 29.014 72.78 28.599 74.19 z" transform="translate(-41.925, -62.805)" style="stroke: none; stroke-width: 1; stroke-dasharray: none; stroke-linecap: butt; stroke-dashoffset: 0; stroke-linejoin: miter; stroke-miterlimit: 4; is-custom-font: none; font-file-url: none; fill: rgb(0,209,205); fill-rule: nonzero; opacity: 1;"/>
</g>
		<g id="icon-0" transform="matrix(2.0133 0 0 2.0133 -364.6668 -32.706)">
<path stroke-linecap="round" d="M 87.13 7.705 c 0.149 -0.44 0.275 -0.841 0.386 -1.205 c -10.059 2.247 -19.936 5.951 -27.671 12.382 c -1.658 5.985 0.006 9.56 0.006 9.56 s -3.26 -1.185 -5.211 -4.404 c -1.296 1.539 -2.493 3.192 -3.571 4.976 c -3.291 7.938 -1.022 12.826 -1.022 12.826 s -1.9 -0.69 -3.699 -2.442 c -2.878 7.131 -5.459 13.122 -7.385 17.467 c 4.559 -4.02 9.114 -8.037 13.156 -12.617 c 4.274 -4.692 8.507 -9.442 12.555 -14.329 c 0.749 -0.89 1.385 -1.679 1.94 -2.31 c 1.091 -1.274 1.734 -1.994 1.734 -1.994 S 67.952 26.488 67.22 28 c -2.452 5.063 -5.272 9.892 -8.303 14.627 c -3.844 6.005 -8.306 11.781 -13.285 16.979 c -0.506 0.528 0.083 1.373 0.753 1.078 c 4.873 -2.148 9.607 -4.822 13.922 -7.932 c -1.016 -0.117 -2.022 -0.34 -3.005 -0.675 c -0.346 -0.152 -0.643 -0.282 -0.883 -0.402 c -0.481 -0.228 -0.743 -0.368 -0.743 -0.368 s 0.302 0.001 0.831 0.003 c 2.523 0.009 5.014 -0.452 7.366 -1.308 c 2.556 -2.112 4.909 -4.388 6.999 -6.802 c -2.019 0.053 -4.014 -0.317 -5.859 -1.14 c -0.206 -0.092 -0.122 -0.399 0.103 -0.393 c 2.061 0.052 4.117 -0.274 6.081 -0.888 c 0.78 -0.244 1.543 -0.538 2.29 -0.866 c 2.029 -2.798 3.697 -5.753 4.902 -8.837 c 1.24 -3.173 2.37 -6.052 3.387 -8.636 c -2.25 0.458 -4.544 0.428 -6.785 -0.052 c 0 0 0.387 -0.166 1.064 -0.456 C 82.09 19.346 85.128 13.61 87.13 7.705 z" transform="translate(-63.2395, -33.6224)" style="stroke: none; stroke-width: 1; stroke-dasharray: none; stroke-linecap: butt; stroke-dashoffset: 0; stroke-linejoin: miter; stroke-miterlimit: 4; is-custom-font: none; font-file-url: none; fill: rgb(0,209,205); fill-rule: nonzero; opacity: 1;"/>
</g>
		<g id="tight-bounds" transform="matrix(2.2848 0 0 2.2848 0.0098 0.0019)">
<rect height="76.4299" width="395.52" ry="0" rx="0" y="-38.21495" x="-197.76" style="stroke: none; stroke-width: 1; stroke-dasharray: none; stroke-linecap: butt; stroke-dashoffset: 0; stroke-linejoin: miter; stroke-miterlimit: 4; is-custom-font: none; font-file-url: none; fill: none; fill-rule: nonzero; opacity: 1;"/>
</g>
</g>
</g>
</svg>