<svg xmlns="http://www.w3.org/2000/svg" version="1.1" xmlns:xlink="http://www.w3.org/1999/xlink" xmlns:svgjs="http://svgjs.dev/svgjs" width="1000" height="191" viewBox="0 0 1000 191"><g transform="matrix(1,0,0,1,-0.6060606060606801,0.5401946872881496)"><svg viewBox="0 0 396 76" data-background-color="#444444" preserveAspectRatio="xMidYMid meet" height="191" width="1000" xmlns="http://www.w3.org/2000/svg" xmlns:xlink="http://www.w3.org/1999/xlink"><g id="tight-bounds" transform="matrix(1,0,0,1,0.24000000000003752,-0.21494657714083587)"><svg viewBox="0 0 395.5199999999999 76.42989315428167" height="76.42989315428167" width="395.5199999999999"><g><svg viewBox="0 0 484.4434014597307 93.61336320000001" height="76.42989315428167" width="395.5199999999999"><g transform="matrix(1,0,0,1,88.92340145973071,12.937881600000004)"><svg viewBox="0 0 395.52 67.7376" height="67.7376" width="395.52"><g id="textblocktransform"><svg viewBox="0 0 395.52 67.7376" height="67.7376" width="395.52" id="textblock"><g><svg viewBox="0 0 395.52 67.7376" height="67.7376" width="395.52"><g transform="matrix(1,0,0,1,0,0)"><svg width="395.52" viewBox="1.5 -32.7 257.98 44.10000000000001" height="67.7376" data-palette-color="#ffffff"><g class="wordmark-text-0" data-fill-palette-color="primary" id="text-0"><path d="M4.55 9.2L4.55 9.2 4.55-20Q4.55-20.7 3.85-20.7L3.85-20.7 1.5-20.7 1.5-21.6 3.95-21.6Q6.95-21.6 8.15-21.9L8.15-21.9 8.15-14.9Q9-18.5 10.88-20.35 12.75-22.2 15.05-22.2L15.05-22.2Q18.2-22.2 20.6-19.05 23-15.9 23-10.7 23-5.5 20.28-2.45 17.55 0.6 13.15 0.6L13.15 0.6Q10.4 0.6 8.15-0.75L8.15-0.75 8.15 9.2Q8.15 9.9 8.85 9.9L8.85 9.9 12.2 9.9 12.2 10.8 1.5 10.8 1.5 9.9 3.85 9.9Q4.55 9.9 4.55 9.2ZM19.2-10.6Q19.2-15.25 17.75-17.78 16.3-20.3 14.08-20.3 11.85-20.3 10-17.35 8.15-14.4 8.15-8.85L8.15-8.85 8.15-2.1Q10.35-0.65 12.98-0.65 15.6-0.65 17.4-3.3 19.2-5.95 19.2-10.6ZM29.8-2.45Q27-5.5 27-10.8 27-16.1 29.8-19.15 32.6-22.2 37.1-22.2 41.6-22.2 44.42-19.15 47.25-16.1 47.25-10.8 47.25-5.5 44.42-2.45 41.6 0.6 37.1 0.6 32.6 0.6 29.8-2.45ZM32.6-18.32Q30.8-15.55 30.8-10.8 30.8-6.05 32.6-3.28 34.4-0.5 37.1-0.5 39.8-0.5 41.62-3.28 43.45-6.05 43.45-10.8 43.45-15.55 41.62-18.32 39.8-21.1 37.1-21.1 34.4-21.1 32.6-18.32ZM61.35-22.2L61.35-22.2Q64.8-22.2 66.8-19.9 68.8-17.6 68.8-13.15L68.8-13.15Q68.8-12.25 68.7-11.15L68.7-11.15 55.05-11.15 55.05-10.8Q55.05-6.05 56.77-3.33 58.5-0.6 61.22-0.6 63.95-0.6 65.7-2 67.45-3.4 68.09-6L68.09-6 69.05-5.8Q68.45-2.75 66.3-1.07 64.15 0.6 61.35 0.6L61.35 0.6Q57 0.6 54.12-2.45 51.25-5.5 51.25-10.78 51.25-16.05 54.15-19.13 57.05-22.2 61.35-22.2ZM65.34-14.85L65.34-14.85Q65.34-21 60.75-21L60.75-21Q58.45-21 56.82-18.5 55.2-16 55.1-12.15L55.1-12.15 65.15-12.15Q65.34-13.85 65.34-14.85ZM78.19-26.9L78.19-26.9 78.94-26.9 78.94-21.6 83.94-21.6 83.94-20.7 78.94-20.7 78.94-3.75Q78.94-1.05 80.44-1.05L80.44-1.05Q81.14-1.05 81.67-1.7 82.19-2.35 82.19-3.2 82.19-4.05 82.04-4.8L82.04-4.8 82.99-4.95Q83.19-4.2 83.19-3.3L83.19-3.3Q83.19-1.5 82.12-0.45 81.04 0.6 79.29 0.6 77.54 0.6 76.44-0.83 75.34-2.25 75.34-5.1L75.34-5.1 75.34-20Q75.34-20.7 74.64-20.7L74.64-20.7 72.29-20.7 72.29-21.6 74.74-21.6Q76.34-21.6 78.19-26.9ZM99.69-22.2Q101.64-22.2 102.87-20.55 104.09-18.9 104.09-16.4 104.09-13.9 102.04-13.9L102.04-13.9Q100.84-13.9 100.09-14.65L100.09-14.65Q100.74-16.1 100.74-17.6L100.74-17.6Q100.74-20.25 98.54-20.25L98.54-20.25Q96.69-20.25 95.27-17.18 93.84-14.1 93.84-8.25L93.84-8.25 93.84-1.6Q93.84-0.9 94.54-0.9L94.54-0.9 97.89-0.9 97.89 0 87.19 0 87.19-0.9 89.54-0.9Q90.24-0.9 90.24-1.6L90.24-1.6 90.24-20Q90.24-20.7 89.54-20.7L89.54-20.7 87.19-20.7 87.19-21.6 89.64-21.6Q92.64-21.6 93.84-21.9L93.84-21.9 93.84-15.5Q94.64-18.95 96.19-20.58 97.74-22.2 99.69-22.2ZM118.84-20.7L118.84-21.6 125.19-21.6 125.19-20.7 123.34-20.7Q122.89-20.7 122.64-20L122.64-20 113.99 3.15Q113.84 3.6 113.49 4.5L113.49 4.5 112.94 5.85Q112.79 6.3 112.49 7.08 112.19 7.85 111.99 8.28 111.79 8.7 111.49 9.3L111.49 9.3Q111.14 10.05 110.49 10.73 109.84 11.4 109.14 11.4 108.44 11.4 107.66 10.53 106.89 9.65 106.74 8.65L106.74 8.65Q111.29 6.7 112.94 2.15L112.94 2.15 113.79-0.15 106.39-20Q106.14-20.7 105.69-20.7L105.69-20.7 103.84-20.7 103.84-21.6 112.34-21.6 112.34-20.7 109.84-20.7 115.59-4.9 121.39-20.7 118.84-20.7Z" fill="#ffffff" data-fill-palette-color="primary"></path><path d="M159.09-21L159.09-21 158.69-21.05Q158.24-24.15 156.44-24.15L156.44-24.15Q155.54-24.15 154.79-23.2 154.04-22.25 153.89-20.7L153.89-20.7Q156.59-18.65 156.59-15 156.59-11.35 154.46-9.38 152.34-7.4 148.94-7.4L148.94-7.4 144.49-7.4Q143.24-7.4 142.56-6.7 141.89-6 141.89-5.05 141.89-4.1 142.56-3.4 143.24-2.7 144.49-2.7L144.49-2.7 152.84-2.7Q155.84-2.7 157.36-1.33 158.89 0.05 158.89 2.15L158.89 2.15Q158.89 5.5 155.74 8.45 152.59 11.4 147.89 11.4L147.89 11.4Q144.29 11.4 142.04 9.7 139.79 8 139.79 5.4 139.79 2.8 142.54 0.4L142.54 0.4Q141.24 0.05 140.46-1.07 139.69-2.2 139.69-3.85 139.69-5.5 140.89-6.83 142.09-8.15 144.49-8.15L144.49-8.15 145.24-8.15Q141.34-9.95 141.34-14.8L141.34-14.8Q141.34-18.25 143.44-20.23 145.54-22.2 148.94-22.2L148.94-22.2Q151.19-22.2 152.89-21.3L152.89-21.3Q153.24-23.3 154.31-24.6 155.39-25.9 157.16-25.9 158.94-25.9 160.11-24.95 161.29-24 161.29-22.9L161.29-22.9Q161.29-21 159.09-21ZM152.84 0.6L152.84 0.6 144.09 0.6Q142.49 2.45 142.49 4.8 142.49 7.15 143.89 8.68 145.29 10.2 148.41 10.2 151.54 10.2 154.09 8 156.64 5.8 156.64 3.45L156.64 3.45Q156.64 2.2 155.69 1.4 154.74 0.6 152.84 0.6ZM146.04-19.4Q144.89-17.7 144.89-14.8 144.89-11.9 146.04-10.2 147.19-8.5 148.94-8.5 150.69-8.5 151.86-10.2 153.04-11.9 153.04-14.8 153.04-17.7 151.86-19.4 150.69-21.1 148.94-21.1 147.19-21.1 146.04-19.4ZM174.69-11.2L174.69-11.65 174.74-13.4 174.74-15.15Q174.74-21 170.94-21L170.94-21Q169.29-21 168.36-19.88 167.44-18.75 167.44-17.25 167.44-15.75 167.84-14.65L167.84-14.65Q166.99-13.9 165.49-13.9 163.99-13.9 163.99-16.35 163.99-18.8 165.91-20.5 167.84-22.2 171.39-22.2L171.39-22.2Q178.34-22.2 178.34-14L178.34-14 178.34-3.75Q178.34-1.05 179.84-1.05L179.84-1.05Q180.54-1.05 181.06-1.7 181.59-2.35 181.59-3.2 181.59-4.05 181.44-4.8L181.44-4.8 182.39-4.95Q182.59-4.2 182.59-3.3L182.59-3.3Q182.59-1.5 181.51-0.45 180.44 0.6 178.69 0.6 176.94 0.6 175.84-0.83 174.74-2.25 174.74-5.1L174.74-5.1 174.74-6Q173.89-2.6 172.04-1 170.19 0.6 167.76 0.6 165.34 0.6 163.86-0.93 162.39-2.45 162.39-4.98 162.39-7.5 164.74-9.47 167.09-11.45 171.49-11.45L171.49-11.45Q172.44-11.45 174.69-11.2L174.69-11.2ZM168.89-1.3L168.89-1.3Q170.99-1.3 172.66-3.68 174.34-6.05 174.64-10.35L174.64-10.35Q174.14-10.4 173.24-10.4L173.24-10.4Q169.24-10.4 167.51-8.72 165.79-7.05 165.79-4.85L165.79-4.85Q165.79-3.4 166.64-2.35 167.49-1.3 168.89-1.3ZM187.88-1.6L187.88-1.6 187.88-30.8Q187.88-31.5 187.18-31.5L187.18-31.5 184.83-31.5 184.83-32.4 187.28-32.4Q190.28-32.4 191.48-32.7L191.48-32.7 191.48-1.6Q191.48-0.9 192.18-0.9L192.18-0.9 194.53-0.9 194.53 0 184.83 0 184.83-0.9 187.18-0.9Q187.88-0.9 187.88-1.6ZM200.83-2.45Q198.03-5.5 198.03-10.8 198.03-16.1 200.83-19.15 203.63-22.2 208.13-22.2 212.63-22.2 215.46-19.15 218.28-16.1 218.28-10.8 218.28-5.5 215.46-2.45 212.63 0.6 208.13 0.6 203.63 0.6 200.83-2.45ZM203.63-18.32Q201.83-15.55 201.83-10.8 201.83-6.05 203.63-3.28 205.43-0.5 208.13-0.5 210.83-0.5 212.66-3.28 214.48-6.05 214.48-10.8 214.48-15.55 212.66-18.32 210.83-21.1 208.13-21.1 205.43-21.1 203.63-18.32ZM235.03-22.2Q236.98-22.2 238.2-20.55 239.43-18.9 239.43-16.4 239.43-13.9 237.38-13.9L237.38-13.9Q236.18-13.9 235.43-14.65L235.43-14.65Q236.08-16.1 236.08-17.6L236.08-17.6Q236.08-20.25 233.88-20.25L233.88-20.25Q232.03-20.25 230.6-17.18 229.18-14.1 229.18-8.25L229.18-8.25 229.18-1.6Q229.18-0.9 229.88-0.9L229.88-0.9 233.23-0.9 233.23 0 222.53 0 222.53-0.9 224.88-0.9Q225.58-0.9 225.58-1.6L225.58-1.6 225.58-20Q225.58-20.7 224.88-20.7L224.88-20.7 222.53-20.7 222.53-21.6 224.98-21.6Q227.98-21.6 229.18-21.9L229.18-21.9 229.18-15.5Q229.98-18.95 231.53-20.58 233.08-22.2 235.03-22.2ZM251.78-22.2L251.78-22.2Q255.23-22.2 257.23-19.9 259.23-17.6 259.23-13.15L259.23-13.15Q259.23-12.25 259.13-11.15L259.13-11.15 245.48-11.15 245.48-10.8Q245.48-6.05 247.2-3.33 248.93-0.6 251.65-0.6 254.38-0.6 256.13-2 257.88-3.4 258.53-6L258.53-6 259.48-5.8Q258.88-2.75 256.73-1.07 254.58 0.6 251.78 0.6L251.78 0.6Q247.43 0.6 244.55-2.45 241.68-5.5 241.68-10.78 241.68-16.05 244.58-19.13 247.48-22.2 251.78-22.2ZM255.78-14.85L255.78-14.85Q255.78-21 251.18-21L251.18-21Q248.88-21 247.25-18.5 245.63-16 245.53-12.15L245.53-12.15 255.58-12.15Q255.78-13.85 255.78-14.85Z" fill="#00d1cd" data-fill-palette-color="secondary"></path></g></svg></g></svg></g></svg></g></svg></g><g><svg viewBox="0 0 72.9321798021307 93.61336320000001" height="93.61336320000001" width="72.9321798021307"><g><svg xmlns="http://www.w3.org/2000/svg" xmlns:xlink="http://www.w3.org/1999/xlink" version="1.1" x="0" y="0" viewBox="19.944943877551015 6.5 67.57105612244898 86.73200000000001" enable-background="new 0 0 100 100" xml:space="preserve" height="93.61336320000001" width="72.9321798021307" class="icon-icon-0" data-fill-palette-color="accent" id="icon-0"><path d="M44.161 69.595c-0.039-0.004-0.077-0.005-0.116-0.009v-3.103h0.26c1.362 0 2.466-1.104 2.466-2.466 0-1.362-1.104-2.466-2.466-2.466h-3.249c0.208-0.191 0.416-0.382 0.622-0.571 3.612-3.316 6.933-7.024 9.998-10.846 4.49-5.637 8.619-11.513 12.229-17.756-5.617 6.734-11.178 13.533-17.26 19.858-3.128 3.253-6.361 6.428-9.835 9.315h-6.928c-1.362 0-2.466 1.104-2.466 2.466 0 1.362 1.104 2.466 2.466 2.466h0.26v3.103c-0.039 0.004-0.077 0.005-0.116 0.009-4.08 0.542-9.344 4.871-9.936 9.026-0.351 3.157-0.065 6.314 0.858 9.471 0.6 1.921 2.922 3.859 4.828 4.204 7.545 1.248 15.091 1.248 22.636 0 1.905-0.345 4.228-2.284 4.828-4.204 0.923-3.157 1.209-6.314 0.858-9.471C53.505 74.465 48.241 70.137 44.161 69.595zM28.599 74.19c-0.307 1.044-1.277 1.8-1.909 2.64-0.539 0.715-0.942 1.523-1.227 2.371-0.445 1.325-0.638 2.707-0.692 4.1-0.007 0.184 0.081 2.432 0.022 2.45l-0.649 0.196c0 0-0.474-0.822-0.818-2.171-0.524-2.051-0.592-4.667 0.382-6.609 0.611-1.219 1.301-2.329 2.361-3.235C26.591 73.485 29.014 72.78 28.599 74.19z" fill="#00d1cd" data-fill-palette-color="accent"></path><path d="M87.13 7.705c0.149-0.44 0.275-0.841 0.386-1.205-10.059 2.247-19.936 5.951-27.671 12.382-1.658 5.985 0.006 9.56 0.006 9.56s-3.26-1.185-5.211-4.404c-1.296 1.539-2.493 3.192-3.571 4.976-3.291 7.938-1.022 12.826-1.022 12.826s-1.9-0.69-3.699-2.442c-2.878 7.131-5.459 13.122-7.385 17.467 4.559-4.02 9.114-8.037 13.156-12.617 4.274-4.692 8.507-9.442 12.555-14.329 0.749-0.89 1.385-1.679 1.94-2.31 1.091-1.274 1.734-1.994 1.734-1.994S67.952 26.488 67.22 28c-2.452 5.063-5.272 9.892-8.303 14.627-3.844 6.005-8.306 11.781-13.285 16.979-0.506 0.528 0.083 1.373 0.753 1.078 4.873-2.148 9.607-4.822 13.922-7.932-1.016-0.117-2.022-0.34-3.005-0.675-0.346-0.152-0.643-0.282-0.883-0.402-0.481-0.228-0.743-0.368-0.743-0.368s0.302 0.001 0.831 0.003c2.523 0.009 5.014-0.452 7.366-1.308 2.556-2.112 4.909-4.388 6.999-6.802-2.019 0.053-4.014-0.317-5.859-1.14-0.206-0.092-0.122-0.399 0.103-0.393 2.061 0.052 4.117-0.274 6.081-0.888 0.78-0.244 1.543-0.538 2.29-0.866 2.029-2.798 3.697-5.753 4.902-8.837 1.24-3.173 2.37-6.052 3.387-8.636-2.25 0.458-4.544 0.428-6.785-0.052 0 0 0.387-0.166 1.064-0.456C82.09 19.346 85.128 13.61 87.13 7.705z" fill="#00d1cd" data-fill-palette-color="accent"></path></svg></g></svg></g></svg></g><defs></defs></svg><rect width="395.5199999999999" height="76.42989315428167" fill="none" stroke="none" visibility="hidden"></rect></g></svg></g></svg>