<svg xml:space="preserve" viewBox="100 418 808 188" version="1.1" xmlns:xlink="http://www.w3.org/1999/xlink" xmlns="http://www.w3.org/2000/svg" style="max-height: 500px" width="808" height="188">
<desc>Created with Fabric.js 3.5.0</desc>
<defs>
</defs>
<rect fill="rgba(0,0,0,0)" height="100%" width="100%" y="0" x="0"/>
<g id="997398" transform="matrix(1 0 0 1 500 500)">
<g style="">
		<g id="text-0" transform="matrix(2.8598 0 0 2.8598 -192.0258 8.2925)">
<path stroke-linecap="round" d="M 4.55 9.2 L 4.55 9.2 L 4.55 -20 Q 4.55 -20.7 3.85 -20.7 L 3.85 -20.7 L 1.5 -20.7 L 1.5 -21.6 L 3.95 -21.6 Q 6.95 -21.6 8.15 -21.9 L 8.15 -21.9 L 8.15 -14.9 Q 9 -18.5 10.88 -20.35 Q 12.75 -22.2 15.05 -22.2 L 15.05 -22.2 Q 18.2 -22.2 20.6 -19.05 Q 23 -15.9 23 -10.7 Q 23 -5.5 20.28 -2.45 Q 17.55 0.6 13.15 0.6 L 13.15 0.6 Q 10.4 0.6 8.15 -0.75 L 8.15 -0.75 L 8.15 9.2 Q 8.15 9.9 8.85 9.9 L 8.85 9.9 L 12.2 9.9 L 12.2 10.8 L 1.5 10.8 L 1.5 9.9 L 3.85 9.9 Q 4.55 9.9 4.55 9.2 Z M 19.2 -10.6 Q 19.2 -15.25 17.75 -17.78 Q 16.3 -20.3 14.08 -20.3 Q 11.85 -20.3 10 -17.35 Q 8.15 -14.4 8.15 -8.85 L 8.15 -8.85 L 8.15 -2.1 Q 10.35 -0.65 12.98 -0.65 Q 15.6 -0.65 17.4 -3.3 Q 19.2 -5.95 19.2 -10.6 Z M 29.8 -2.45 Q 27 -5.5 27 -10.8 Q 27 -16.1 29.8 -19.15 Q 32.6 -22.2 37.1 -22.2 Q 41.6 -22.2 44.42 -19.15 Q 47.25 -16.1 47.25 -10.8 Q 47.25 -5.5 44.42 -2.45 Q 41.6 0.6 37.1 0.6 Q 32.6 0.6 29.8 -2.45 Z M 32.6 -18.32 Q 30.8 -15.55 30.8 -10.8 Q 30.8 -6.05 32.6 -3.28 Q 34.4 -0.5 37.1 -0.5 Q 39.8 -0.5 41.62 -3.28 Q 43.45 -6.05 43.45 -10.8 Q 43.45 -15.55 41.62 -18.32 Q 39.8 -21.1 37.1 -21.1 Q 34.4 -21.1 32.6 -18.32 Z M 61.35 -22.2 L 61.35 -22.2 Q 64.8 -22.2 66.8 -19.9 Q 68.8 -17.6 68.8 -13.15 L 68.8 -13.15 Q 68.8 -12.25 68.7 -11.15 L 68.7 -11.15 L 55.05 -11.15 L 55.05 -10.8 Q 55.05 -6.05 56.77 -3.33 Q 58.5 -0.6 61.22 -0.6 Q 63.95 -0.6 65.7 -2 Q 67.45 -3.4 68.09 -6 L 68.09 -6 L 69.05 -5.8 Q 68.45 -2.75 66.3 -1.07 Q 64.15 0.6 61.35 0.6 L 61.35 0.6 Q 57 0.6 54.12 -2.45 Q 51.25 -5.5 51.25 -10.78 Q 51.25 -16.05 54.15 -19.13 Q 57.05 -22.2 61.35 -22.2 Z M 65.34 -14.85 L 65.34 -14.85 Q 65.34 -21 60.75 -21 L 60.75 -21 Q 58.45 -21 56.82 -18.5 Q 55.2 -16 55.1 -12.15 L 55.1 -12.15 L 65.15 -12.15 Q 65.34 -13.85 65.34 -14.85 Z M 78.19 -26.9 L 78.19 -26.9 L 78.94 -26.9 L 78.94 -21.6 L 83.94 -21.6 L 83.94 -20.7 L 78.94 -20.7 L 78.94 -3.75 Q 78.94 -1.05 80.44 -1.05 L 80.44 -1.05 Q 81.14 -1.05 81.67 -1.7 Q 82.19 -2.35 82.19 -3.2 Q 82.19 -4.05 82.04 -4.8 L 82.04 -4.8 L 82.99 -4.95 Q 83.19 -4.2 83.19 -3.3 L 83.19 -3.3 Q 83.19 -1.5 82.12 -0.45 Q 81.04 0.6 79.29 0.6 Q 77.54 0.6 76.44 -0.83 Q 75.34 -2.25 75.34 -5.1 L 75.34 -5.1 L 75.34 -20 Q 75.34 -20.7 74.64 -20.7 L 74.64 -20.7 L 72.29 -20.7 L 72.29 -21.6 L 74.74 -21.6 Q 76.34 -21.6 78.19 -26.9 Z M 99.69 -22.2 Q 101.64 -22.2 102.87 -20.55 Q 104.09 -18.9 104.09 -16.4 Q 104.09 -13.9 102.04 -13.9 L 102.04 -13.9 Q 100.84 -13.9 100.09 -14.65 L 100.09 -14.65 Q 100.74 -16.1 100.74 -17.6 L 100.74 -17.6 Q 100.74 -20.25 98.54 -20.25 L 98.54 -20.25 Q 96.69 -20.25 95.27 -17.18 Q 93.84 -14.1 93.84 -8.25 L 93.84 -8.25 L 93.84 -1.6 Q 93.84 -0.9 94.54 -0.9 L 94.54 -0.9 L 97.89 -0.9 L 97.89 0 L 87.19 0 L 87.19 -0.9 L 89.54 -0.9 Q 90.24 -0.9 90.24 -1.6 L 90.24 -1.6 L 90.24 -20 Q 90.24 -20.7 89.54 -20.7 L 89.54 -20.7 L 87.19 -20.7 L 87.19 -21.6 L 89.64 -21.6 Q 92.64 -21.6 93.84 -21.9 L 93.84 -21.9 L 93.84 -15.5 Q 94.64 -18.95 96.19 -20.58 Q 97.74 -22.2 99.69 -22.2 Z M 118.84 -20.7 L 118.84 -21.6 L 125.19 -21.6 L 125.19 -20.7 L 123.34 -20.7 Q 122.89 -20.7 122.64 -20 L 122.64 -20 L 113.99 3.15 Q 113.84 3.6 113.49 4.5 L 113.49 4.5 L 112.94 5.85 Q 112.79 6.3 112.49 7.08 Q 112.19 7.85 111.99 8.28 Q 111.79 8.7 111.49 9.3 L 111.49 9.3 Q 111.14 10.05 110.49 10.73 Q 109.84 11.4 109.14 11.4 Q 108.44 11.4 107.66 10.53 Q 106.89 9.65 106.74 8.65 L 106.74 8.65 Q 111.29 6.7 112.94 2.15 L 112.94 2.15 L 113.79 -0.15 L 106.39 -20 Q 106.14 -20.7 105.69 -20.7 L 105.69 -20.7 L 103.84 -20.7 L 103.84 -21.6 L 112.34 -21.6 L 112.34 -20.7 L 109.84 -20.7 L 115.59 -4.9 L 121.39 -20.7 L 118.84 -20.7 Z" transform="translate(-63.345, 7.75)" style="stroke: none; stroke-width: 1; stroke-dasharray: none; stroke-linecap: butt; stroke-dashoffset: 0; stroke-linejoin: miter; stroke-miterlimit: 4; is-custom-font: none; font-file-url: none; fill: rgb(255,255,255); fill-rule: nonzero; opacity: 1;"/>
</g>
		<g id="text-0" transform="matrix(2.8598 0 0 2.8598 197.5967 -0.001)">
<path stroke-linecap="round" d="M 159.09 -21 L 159.09 -21 L 158.69 -21.05 Q 158.24 -24.15 156.44 -24.15 L 156.44 -24.15 Q 155.54 -24.15 154.79 -23.2 Q 154.04 -22.25 153.89 -20.7 L 153.89 -20.7 Q 156.59 -18.65 156.59 -15 Q 156.59 -11.35 154.46 -9.38 Q 152.34 -7.4 148.94 -7.4 L 148.94 -7.4 L 144.49 -7.4 Q 143.24 -7.4 142.56 -6.7 Q 141.89 -6 141.89 -5.05 Q 141.89 -4.1 142.56 -3.4 Q 143.24 -2.7 144.49 -2.7 L 144.49 -2.7 L 152.84 -2.7 Q 155.84 -2.7 157.36 -1.33 Q 158.89 0.05 158.89 2.15 L 158.89 2.15 Q 158.89 5.5 155.74 8.45 Q 152.59 11.4 147.89 11.4 L 147.89 11.4 Q 144.29 11.4 142.04 9.7 Q 139.79 8 139.79 5.4 Q 139.79 2.8 142.54 0.4 L 142.54 0.4 Q 141.24 0.05 140.46 -1.07 Q 139.69 -2.2 139.69 -3.85 Q 139.69 -5.5 140.89 -6.83 Q 142.09 -8.15 144.49 -8.15 L 144.49 -8.15 L 145.24 -8.15 Q 141.34 -9.95 141.34 -14.8 L 141.34 -14.8 Q 141.34 -18.25 143.44 -20.23 Q 145.54 -22.2 148.94 -22.2 L 148.94 -22.2 Q 151.19 -22.2 152.89 -21.3 L 152.89 -21.3 Q 153.24 -23.3 154.31 -24.6 Q 155.39 -25.9 157.16 -25.9 Q 158.94 -25.9 160.11 -24.95 Q 161.29 -24 161.29 -22.9 L 161.29 -22.9 Q 161.29 -21 159.09 -21 Z M 152.84 0.6 L 152.84 0.6 L 144.09 0.6 Q 142.49 2.45 142.49 4.8 Q 142.49 7.15 143.89 8.68 Q 145.29 10.2 148.41 10.2 Q 151.54 10.2 154.09 8 Q 156.64 5.8 156.64 3.45 L 156.64 3.45 Q 156.64 2.2 155.69 1.4 Q 154.74 0.6 152.84 0.6 Z M 146.04 -19.4 Q 144.89 -17.7 144.89 -14.8 Q 144.89 -11.9 146.04 -10.2 Q 147.19 -8.5 148.94 -8.5 Q 150.69 -8.5 151.86 -10.2 Q 153.04 -11.9 153.04 -14.8 Q 153.04 -17.7 151.86 -19.4 Q 150.69 -21.1 148.94 -21.1 Q 147.19 -21.1 146.04 -19.4 Z M 174.69 -11.2 L 174.69 -11.65 L 174.74 -13.4 L 174.74 -15.15 Q 174.74 -21 170.94 -21 L 170.94 -21 Q 169.29 -21 168.36 -19.88 Q 167.44 -18.75 167.44 -17.25 Q 167.44 -15.75 167.84 -14.65 L 167.84 -14.65 Q 166.99 -13.9 165.49 -13.9 Q 163.99 -13.9 163.99 -16.35 Q 163.99 -18.8 165.91 -20.5 Q 167.84 -22.2 171.39 -22.2 L 171.39 -22.2 Q 178.34 -22.2 178.34 -14 L 178.34 -14 L 178.34 -3.75 Q 178.34 -1.05 179.84 -1.05 L 179.84 -1.05 Q 180.54 -1.05 181.06 -1.7 Q 181.59 -2.35 181.59 -3.2 Q 181.59 -4.05 181.44 -4.8 L 181.44 -4.8 L 182.39 -4.95 Q 182.59 -4.2 182.59 -3.3 L 182.59 -3.3 Q 182.59 -1.5 181.51 -0.45 Q 180.44 0.6 178.69 0.6 Q 176.94 0.6 175.84 -0.83 Q 174.74 -2.25 174.74 -5.1 L 174.74 -5.1 L 174.74 -6 Q 173.89 -2.6 172.04 -1 Q 170.19 0.6 167.76 0.6 Q 165.34 0.6 163.86 -0.93 Q 162.39 -2.45 162.39 -4.98 Q 162.39 -7.5 164.74 -9.47 Q 167.09 -11.45 171.49 -11.45 L 171.49 -11.45 Q 172.44 -11.45 174.69 -11.2 L 174.69 -11.2 Z M 168.89 -1.3 L 168.89 -1.3 Q 170.99 -1.3 172.66 -3.68 Q 174.34 -6.05 174.64 -10.35 L 174.64 -10.35 Q 174.14 -10.4 173.24 -10.4 L 173.24 -10.4 Q 169.24 -10.4 167.51 -8.72 Q 165.79 -7.05 165.79 -4.85 L 165.79 -4.85 Q 165.79 -3.4 166.64 -2.35 Q 167.49 -1.3 168.89 -1.3 Z M 187.88 -1.6 L 187.88 -1.6 L 187.88 -30.8 Q 187.88 -31.5 187.18 -31.5 L 187.18 -31.5 L 184.83 -31.5 L 184.83 -32.4 L 187.28 -32.4 Q 190.28 -32.4 191.48 -32.7 L 191.48 -32.7 L 191.48 -1.6 Q 191.48 -0.9 192.18 -0.9 L 192.18 -0.9 L 194.53 -0.9 L 194.53 0 L 184.83 0 L 184.83 -0.9 L 187.18 -0.9 Q 187.88 -0.9 187.88 -1.6 Z M 200.83 -2.45 Q 198.03 -5.5 198.03 -10.8 Q 198.03 -16.1 200.83 -19.15 Q 203.63 -22.2 208.13 -22.2 Q 212.63 -22.2 215.46 -19.15 Q 218.28 -16.1 218.28 -10.8 Q 218.28 -5.5 215.46 -2.45 Q 212.63 0.6 208.13 0.6 Q 203.63 0.6 200.83 -2.45 Z M 203.63 -18.32 Q 201.83 -15.55 201.83 -10.8 Q 201.83 -6.05 203.63 -3.28 Q 205.43 -0.5 208.13 -0.5 Q 210.83 -0.5 212.66 -3.28 Q 214.48 -6.05 214.48 -10.8 Q 214.48 -15.55 212.66 -18.32 Q 210.83 -21.1 208.13 -21.1 Q 205.43 -21.1 203.63 -18.32 Z M 235.03 -22.2 Q 236.98 -22.2 238.2 -20.55 Q 239.43 -18.9 239.43 -16.4 Q 239.43 -13.9 237.38 -13.9 L 237.38 -13.9 Q 236.18 -13.9 235.43 -14.65 L 235.43 -14.65 Q 236.08 -16.1 236.08 -17.6 L 236.08 -17.6 Q 236.08 -20.25 233.88 -20.25 L 233.88 -20.25 Q 232.03 -20.25 230.6 -17.18 Q 229.18 -14.1 229.18 -8.25 L 229.18 -8.25 L 229.18 -1.6 Q 229.18 -0.9 229.88 -0.9 L 229.88 -0.9 L 233.23 -0.9 L 233.23 0 L 222.53 0 L 222.53 -0.9 L 224.88 -0.9 Q 225.58 -0.9 225.58 -1.6 L 225.58 -1.6 L 225.58 -20 Q 225.58 -20.7 224.88 -20.7 L 224.88 -20.7 L 222.53 -20.7 L 222.53 -21.6 L 224.98 -21.6 Q 227.98 -21.6 229.18 -21.9 L 229.18 -21.9 L 229.18 -15.5 Q 229.98 -18.95 231.53 -20.58 Q 233.08 -22.2 235.03 -22.2 Z M 251.78 -22.2 L 251.78 -22.2 Q 255.23 -22.2 257.23 -19.9 Q 259.23 -17.6 259.23 -13.15 L 259.23 -13.15 Q 259.23 -12.25 259.13 -11.15 L 259.13 -11.15 L 245.48 -11.15 L 245.48 -10.8 Q 245.48 -6.05 247.2 -3.33 Q 248.93 -0.6 251.65 -0.6 Q 254.38 -0.6 256.13 -2 Q 257.88 -3.4 258.53 -6 L 258.53 -6 L 259.48 -5.8 Q 258.88 -2.75 256.73 -1.07 Q 254.58 0.6 251.78 0.6 L 251.78 0.6 Q 247.43 0.6 244.55 -2.45 Q 241.68 -5.5 241.68 -10.78 Q 241.68 -16.05 244.58 -19.13 Q 247.48 -22.2 251.78 -22.2 Z M 255.78 -14.85 L 255.78 -14.85 Q 255.78 -21 251.18 -21 L 251.18 -21 Q 248.88 -21 247.25 -18.5 Q 245.63 -16 245.53 -12.15 L 245.53 -12.15 L 255.58 -12.15 Q 255.78 -13.85 255.78 -14.85 Z" transform="translate(-199.585, 10.65)" style="stroke: none; stroke-width: 1; stroke-dasharray: none; stroke-linecap: butt; stroke-dashoffset: 0; stroke-linejoin: miter; stroke-miterlimit: 4; is-custom-font: none; font-file-url: none; fill: rgb(0,209,205); fill-rule: nonzero; opacity: 1;"/>
</g>
</g>
</g>
</svg>